<svg version="1.2" xmlns="http://www.w3.org/2000/svg" viewBox="0 0 51 52" width="51" height="52">
	<title>Notification-svg</title>
	<style>
		.s0 { fill: #242d40 } 
		.s1 { fill: none;stroke: #ffffff;stroke-linecap: round;stroke-linejoin: round;stroke-width: 2 } 
		.s2 { fill: #e83363 } 
		.s3 { fill: #e3f1fd } 
	</style>
	<g id="Layer">
		<path id="Layer" class="s0" d="m23 52c-12.7 0-23-10.3-23-23 0-12.7 10.3-23 23-23 12.7 0 23 10.3 23 23 0 12.7-10.3 23-23 23z"/>
	</g>
	<path id="Layer" fill-rule="evenodd" class="s1" d="m29.9 25.6c0-1.9-0.7-3.6-2-4.9-1.3-1.3-3.1-2-4.9-2-1.8 0-3.6 0.7-4.9 2-1.3 1.3-2 3-2 4.9 0 8-3.4 10.3-3.4 10.3h20.7c0 0-3.5-2.3-3.5-10.3z"/>
	<path id="Layer" fill-rule="evenodd" class="s1" d="m25 40.5q-0.3 0.5-0.9 0.8-0.5 0.3-1.1 0.3-0.6 0-1.1-0.3-0.6-0.3-0.9-0.8"/>
	<path id="Layer" class="s2" d="m40 22c-6.1 0-11-4.9-11-11 0-6.1 4.9-11 11-11 6.1 0 11 4.9 11 11 0 6.1-4.9 11-11 11z"/>
	<path id="Layer" class="s3" d="m36.5 14.6h1.6v-7.7h-1.4l-2.5 2.5 1 0.9 1.3-1.3zm2.9 0h5.8v-1.4h-3.2c2-1.5 3.1-2.6 3.1-3.9 0-1.5-1.3-2.5-2.9-2.5-1.1 0-2.2 0.4-3 1.3l1 1.1c0.5-0.6 1.1-0.9 2-0.9 0.7 0 1.3 0.3 1.3 1 0 0.9-1 1.7-4.1 4z"/>
</svg>